<svg width="25" height="25" viewBox="0 0 25 25" fill="none" xmlns="http://www.w3.org/2000/svg">
<g clip-path="url(#clip0_2275_1314)">
<path d="M2.59375 6.17031C2.59375 5.83931 2.86975 5.57031 3.21075 5.57031H21.3288C21.6707 5.57031 21.9468 5.83931 21.9468 6.17031C21.9468 6.50131 21.6707 6.77031 21.3288 6.77031H3.21075C2.86975 6.77031 2.59375 6.50131 2.59375 6.17031ZM3.21075 13.1703H10.6228C10.9637 13.1703 11.2408 12.9013 11.2408 12.5703C11.2408 12.2393 10.9637 11.9703 10.6228 11.9703H3.21075C2.86975 11.9703 2.59375 12.2393 2.59375 12.5703C2.59375 12.9013 2.86975 13.1703 3.21075 13.1703ZM12.2697 18.3703H3.21075C2.86975 18.3703 2.59375 18.6393 2.59375 18.9703C2.59375 19.3013 2.86975 19.5703 3.21075 19.5703H12.2697C12.6107 19.5703 12.8877 19.3013 12.8877 18.9703C12.8877 18.6393 12.6107 18.3703 12.2697 18.3703ZM23.4128 19.3943C23.1718 19.6283 22.7807 19.6283 22.5397 19.3943L20.3277 17.2463C18.6727 18.4113 16.3738 18.1443 15.0478 16.6343C13.7218 15.1233 13.8127 12.8763 15.2577 11.4733C16.7037 10.0693 19.0168 9.98031 20.5718 11.2683C22.1258 12.5573 22.4007 14.7893 21.2017 16.3973L23.4128 18.5463C23.6537 18.7803 23.6537 19.1603 23.4128 19.3943ZM18.0347 16.7703C19.5128 16.7703 20.7118 15.6063 20.7118 14.1703C20.7118 12.7343 19.5128 11.5703 18.0347 11.5703C16.5568 11.5703 15.3588 12.7343 15.3588 14.1703C15.3588 15.6063 16.5568 16.7703 18.0347 16.7703Z" fill="white"/>
</g>
<defs>
<clipPath id="clip0_2275_1314">
<rect width="24" height="24" fill="white" transform="translate(0.96875 0.570312)"/>
</clipPath>
</defs>
</svg>
