<svg width="24" height="25" viewBox="0 0 24 25" fill="none" xmlns="http://www.w3.org/2000/svg">
<g clip-path="url(#clip0_2280_18457)">
<path d="M9 12.75C9 11.093 10.343 9.75 12 9.75C13.657 9.75 15 11.093 15 12.75C15 14.407 13.657 15.75 12 15.75C10.343 15.75 9 14.407 9 12.75Z" fill="#8D75E6"/>
<path d="M16.125 3.375H7.875C4.976 3.375 2.625 5.726 2.625 8.625V16.875C2.625 19.774 4.976 22.125 7.875 22.125H16.125C19.024 22.125 21.375 19.774 21.375 16.875V8.625C21.375 5.726 19.024 3.375 16.125 3.375ZM12 17.25C9.515 17.25 7.5 15.235 7.5 12.75C7.5 10.265 9.515 8.25 12 8.25C14.485 8.25 16.5 10.265 16.5 12.75C16.5 15.235 14.485 17.25 12 17.25ZM16.875 9C16.254 9 15.75 8.496 15.75 7.875C15.75 7.254 16.254 6.75 16.875 6.75C17.496 6.75 18 7.254 18 7.875C18 8.496 17.496 9 16.875 9Z" fill="#8D75E6"/>
</g>
<defs>
<clipPath id="clip0_2280_18457">
<rect width="24" height="24" fill="white" transform="translate(0 0.75)"/>
</clipPath>
</defs>
</svg>
