<svg width="25" height="25" viewBox="0 0 25 25" fill="none" xmlns="http://www.w3.org/2000/svg">
<path d="M8.72789 5.93359H6.44217C6.13907 5.93359 5.84838 6.054 5.63405 6.26833C5.41972 6.48265 5.29932 6.77334 5.29932 7.07645V19.6479C5.29932 19.951 5.41972 20.2417 5.63405 20.456C5.84838 20.6704 6.13907 20.7908 6.44217 20.7908H17.8707C18.1738 20.7908 18.4645 20.6704 18.6788 20.456C18.8931 20.2417 19.0136 19.951 19.0136 19.6479V7.07645C19.0136 6.77334 18.8931 6.48265 18.6788 6.26833C18.4645 6.054 18.1738 5.93359 17.8707 5.93359H15.585" stroke="white" stroke-width="1.2" stroke-linecap="round" stroke-linejoin="round"/>
<path d="M11.0136 10.5034H16.7279M11.0136 13.932H16.7279M11.0136 17.3605H16.7279M7.58496 10.5034H8.72782M7.58496 13.932H8.72782M7.58496 17.3605H8.72782M9.87068 4.78906H14.4422C14.7453 4.78906 15.0359 4.90947 15.2503 5.1238C15.4646 5.33812 15.585 5.62881 15.585 5.93192C15.585 6.23502 15.4646 6.52571 15.2503 6.74004C15.0359 6.95437 14.7453 7.07477 14.4422 7.07477H9.87068C9.56757 7.07477 9.27688 6.95437 9.06255 6.74004C8.84823 6.52571 8.72782 6.23502 8.72782 5.93192C8.72782 5.62881 8.84823 5.33812 9.06255 5.1238C9.27688 4.90947 9.56757 4.78906 9.87068 4.78906Z" stroke="white" stroke-width="1.2" stroke-linecap="round" stroke-linejoin="round"/>
</svg>
