<svg width="169" height="169" viewBox="0 0 169 169" fill="none" xmlns="http://www.w3.org/2000/svg">
<g clip-path="url(#clip0_1819_12017)">
<rect width="168.981" height="168.981" rx="11.5214" fill="white" fill-opacity="0.01"/>
<g clip-path="url(#clip1_1819_12017)">
<path d="M0 0H168.981V168.981H0V0Z" fill="white"/>
<path d="M28.8046 54.7269V46.0858C28.8046 43.0301 30.0184 40.0996 32.1791 37.9389C34.3398 35.7783 37.2703 34.5644 40.326 34.5644C43.3816 34.5644 46.3122 35.7783 48.4728 37.9389C50.6335 40.0996 51.8474 43.0301 51.8474 46.0858V54.7269H53.2876V57.6072H27.3644V54.7269H28.8046ZM31.6849 46.0858H34.5653C34.5653 44.558 35.1722 43.0927 36.2525 42.0124C37.3329 40.932 38.7981 40.3251 40.326 40.3251V37.4448C38.0342 37.4448 35.8363 38.3552 34.2158 39.9757C32.5953 41.5962 31.6849 43.7941 31.6849 46.0858ZM38.8858 28.8037H41.7662V33.1242H38.8858V28.8037ZM51.5277 32.8477L53.5631 34.8841L50.5099 37.9383L48.4726 35.9028L51.5277 32.8477ZM27.0879 34.8841L29.1233 32.8477L32.1784 35.9009L30.143 37.9402L27.0879 34.8841Z" fill="#6E51E0"/>
<path d="M28.8046 54.7269V46.0858C28.8046 43.0301 30.0184 40.0996 32.1791 37.9389C34.3398 35.7783 37.2703 34.5644 40.326 34.5644C43.3816 34.5644 46.3122 35.7783 48.4728 37.9389C50.6335 40.0996 51.8474 43.0301 51.8474 46.0858V54.7269H53.2876V57.6072H27.3644V54.7269H28.8046ZM31.6849 46.0858H34.5653C34.5653 44.558 35.1722 43.0927 36.2525 42.0124C37.3329 40.932 38.7981 40.3251 40.326 40.3251V37.4448C38.0342 37.4448 35.8363 38.3552 34.2158 39.9757C32.5953 41.5962 31.6849 43.7941 31.6849 46.0858ZM38.8858 28.8037H41.7662V33.1242H38.8858V28.8037ZM51.5277 32.8477L53.5631 34.8841L50.5099 37.9383L48.4726 35.9028L51.5277 32.8477ZM27.0879 34.8841L29.1233 32.8477L32.1784 35.9009L30.143 37.9402L27.0879 34.8841Z" fill="url(#paint0_linear_1819_12017)" fill-opacity="0.24"/>
<path d="M29.1077 86.4055V108.75H25.7255V89.7877H25.5946L20.2485 93.279V90.0495L25.8237 86.4055H29.1077ZM40.4733 109.121C38.7495 109.114 37.2766 108.659 36.0546 107.757C34.8326 106.855 33.898 105.542 33.2506 103.818C32.6033 102.095 32.2796 100.018 32.2796 97.5886C32.2796 95.1665 32.6033 93.0972 33.2506 91.3806C33.9052 89.664 34.8435 88.3548 36.0655 87.4529C37.2947 86.5509 38.764 86.1 40.4733 86.1C42.1826 86.1 43.6482 86.5546 44.8702 87.4638C46.0922 88.3657 47.0268 89.675 47.6742 91.3915C48.3288 93.1008 48.6561 95.1665 48.6561 97.5886C48.6561 100.025 48.3325 102.106 47.6851 103.829C47.0377 105.546 46.1031 106.859 44.8811 107.768C43.6592 108.67 42.1899 109.121 40.4733 109.121ZM40.4733 106.208C41.9862 106.208 43.1682 105.47 44.0192 103.993C44.8775 102.517 45.3066 100.382 45.3066 97.5886C45.3066 95.7339 45.1102 94.1664 44.7175 92.8863C44.332 91.5988 43.7755 90.6242 43.0482 89.9623C42.3281 89.2931 41.4698 88.9585 40.4733 88.9585C38.9677 88.9585 37.7857 89.7004 36.9274 91.1842C36.0691 92.668 35.6364 94.8029 35.6291 97.5886C35.6291 99.4507 35.8218 101.025 36.2073 102.313C36.6001 103.593 37.1565 104.564 37.8766 105.226C38.5967 105.881 39.4623 106.208 40.4733 106.208ZM50.3742 108.75V86.4055H53.7455V97.0759H54.0183L63.3903 86.4055H67.6345L58.6225 96.4649L67.6672 108.75H63.6085L56.3858 98.767L53.7455 101.8V108.75H50.3742ZM80.2981 104.997V90.2459H83.233V104.997H80.2981ZM74.3955 99.0834V96.1594H89.1464V99.0834H74.3955Z" fill="#101828"/>
<path d="M19.424 135.914V126.138H22.7271C23.4941 126.138 24.1209 126.277 24.6078 126.554C25.0979 126.827 25.4607 127.198 25.6961 127.666C25.9316 128.134 26.0494 128.655 26.0494 129.231C26.0494 129.807 25.9316 130.331 25.6961 130.802C25.4638 131.273 25.1042 131.648 24.6174 131.928C24.1305 132.205 23.5068 132.344 22.7462 132.344H20.3787V131.294H22.708C23.2331 131.294 23.6548 131.203 23.973 131.021C24.2912 130.84 24.5219 130.595 24.6651 130.286C24.8115 129.974 24.8847 129.623 24.8847 129.231C24.8847 128.84 24.8115 128.49 24.6651 128.181C24.5219 127.873 24.2896 127.631 23.9682 127.456C23.6468 127.278 23.2204 127.188 22.689 127.188H20.6078V135.914H19.424ZM30.7033 136.067C30.0414 136.067 29.4607 135.909 28.9611 135.594C28.4647 135.279 28.0764 134.838 27.7964 134.272C27.5195 133.706 27.3811 133.044 27.3811 132.286C27.3811 131.523 27.5195 130.856 27.7964 130.286C28.0764 129.717 28.4647 129.274 28.9611 128.959C29.4607 128.644 30.0414 128.487 30.7033 128.487C31.3652 128.487 31.9444 128.644 32.4408 128.959C32.9404 129.274 33.3287 129.717 33.6055 130.286C33.8855 130.856 34.0256 131.523 34.0256 132.286C34.0256 133.044 33.8855 133.706 33.6055 134.272C33.3287 134.838 32.9404 135.279 32.4408 135.594C31.9444 135.909 31.3652 136.067 30.7033 136.067ZM30.7033 135.055C31.2061 135.055 31.6198 134.926 31.9444 134.668C32.269 134.41 32.5092 134.072 32.6652 133.652C32.8211 133.231 32.8991 132.776 32.8991 132.286C32.8991 131.796 32.8211 131.34 32.6652 130.916C32.5092 130.493 32.269 130.151 31.9444 129.89C31.6198 129.629 31.2061 129.499 30.7033 129.499C30.2005 129.499 29.7869 129.629 29.4623 129.89C29.1377 130.151 28.8974 130.493 28.7415 130.916C28.5856 131.34 28.5076 131.796 28.5076 132.286C28.5076 132.776 28.5856 133.231 28.7415 133.652C28.8974 134.072 29.1377 134.41 29.4623 134.668C29.7869 134.926 30.2005 135.055 30.7033 135.055ZM38.5137 136.067C37.9027 136.067 37.3633 135.912 36.8955 135.604C36.4277 135.292 36.0618 134.853 35.7976 134.286C35.5335 133.717 35.4015 133.044 35.4015 132.267C35.4015 131.497 35.5335 130.829 35.7976 130.262C36.0618 129.696 36.4293 129.258 36.9003 128.95C37.3712 128.641 37.9154 128.487 38.5328 128.487C39.0101 128.487 39.3872 128.566 39.664 128.725C39.9441 128.881 40.1573 129.06 40.3036 129.26C40.4532 129.457 40.5694 129.62 40.6521 129.747H40.7476V126.138H41.8741V135.914H40.7858V134.788H40.6521C40.5694 134.921 40.4516 135.09 40.2989 135.294C40.1461 135.494 39.9281 135.674 39.6449 135.833C39.3617 135.989 38.9846 136.067 38.5137 136.067ZM38.6664 135.055C39.1183 135.055 39.5001 134.937 39.812 134.702C40.1239 134.463 40.3609 134.134 40.5232 133.714C40.6855 133.29 40.7667 132.802 40.7667 132.248C40.7667 131.701 40.6871 131.222 40.528 130.811C40.3689 130.398 40.1334 130.076 39.8215 129.847C39.5097 129.615 39.1246 129.499 38.6664 129.499C38.1891 129.499 37.7913 129.621 37.4731 129.866C37.158 130.108 36.921 130.437 36.7619 130.854C36.6059 131.268 36.528 131.733 36.528 132.248C36.528 132.77 36.6075 133.244 36.7666 133.671C36.9289 134.094 37.1676 134.431 37.4826 134.683C37.8008 134.931 38.1954 135.055 38.6664 135.055ZM47.0722 136.067C46.3848 136.067 45.793 135.905 45.2965 135.58C44.8001 135.255 44.4182 134.808 44.1509 134.239C43.8836 133.669 43.75 133.018 43.75 132.286C43.75 131.542 43.8868 130.885 44.1605 130.315C44.4373 129.742 44.8224 129.295 45.3156 128.974C45.812 128.649 46.3912 128.487 47.0531 128.487C47.5686 128.487 48.0332 128.582 48.4469 128.773C48.8606 128.964 49.1995 129.231 49.4636 129.575C49.7277 129.919 49.8916 130.32 49.9553 130.778H48.8288C48.7429 130.444 48.5519 130.148 48.256 129.89C47.9632 129.629 47.5686 129.499 47.0722 129.499C46.6331 129.499 46.248 129.613 45.9171 129.842C45.5893 130.068 45.3331 130.388 45.1486 130.802C44.9672 131.212 44.8765 131.694 44.8765 132.248C44.8765 132.815 44.9656 133.308 45.1438 133.728C45.3252 134.148 45.5797 134.474 45.9075 134.706C46.2385 134.939 46.6267 135.055 47.0722 135.055C47.365 135.055 47.6307 135.004 47.8693 134.902C48.108 134.8 48.3101 134.654 48.4755 134.463C48.641 134.272 48.7588 134.043 48.8288 133.776H49.9553C49.8916 134.208 49.7341 134.598 49.4827 134.945C49.2345 135.289 48.9051 135.562 48.4946 135.766C48.0873 135.967 47.6132 136.067 47.0722 136.067ZM53.7596 136.086C53.295 136.086 52.8734 135.998 52.4947 135.823C52.116 135.645 51.8153 135.389 51.5925 135.055C51.3698 134.718 51.2584 134.31 51.2584 133.833C51.2584 133.413 51.3411 133.072 51.5066 132.811C51.6721 132.547 51.8932 132.34 52.1701 132.191C52.4469 132.041 52.7524 131.93 53.0866 131.857C53.4239 131.78 53.7628 131.72 54.1033 131.675C54.5488 131.618 54.91 131.575 55.1868 131.546C55.4669 131.515 55.6705 131.462 55.7978 131.389C55.9283 131.316 55.9935 131.188 55.9935 131.007V130.969C55.9935 130.498 55.8646 130.132 55.6069 129.871C55.3523 129.61 54.9657 129.48 54.447 129.48C53.9092 129.48 53.4875 129.597 53.182 129.833C52.8765 130.068 52.6617 130.32 52.5376 130.587L51.4684 130.205C51.6593 129.76 51.9139 129.413 52.2321 129.165C52.5535 128.913 52.9036 128.738 53.2823 128.64C53.6641 128.538 54.0396 128.487 54.4088 128.487C54.6443 128.487 54.9147 128.515 55.2202 128.573C55.5289 128.627 55.8264 128.74 56.1128 128.912C56.4024 129.083 56.6427 129.343 56.8336 129.69C57.0245 130.037 57.12 130.501 57.12 131.083V135.914H55.9935V134.921H55.9362C55.8599 135.08 55.7326 135.251 55.5544 135.432C55.3762 135.613 55.1391 135.768 54.8431 135.895C54.5472 136.022 54.186 136.086 53.7596 136.086ZM53.9314 135.074C54.3769 135.074 54.7524 134.986 55.0579 134.811C55.3666 134.636 55.5989 134.41 55.7548 134.134C55.914 133.857 55.9935 133.566 55.9935 133.26V132.229C55.9458 132.286 55.8408 132.339 55.6785 132.387C55.5194 132.431 55.3348 132.471 55.1248 132.506C54.9179 132.538 54.7159 132.566 54.5186 132.592C54.3244 132.614 54.1669 132.633 54.046 132.649C53.7532 132.687 53.4796 132.749 53.225 132.835C52.9736 132.918 52.7699 133.044 52.614 133.212C52.4613 133.378 52.3849 133.604 52.3849 133.89C52.3849 134.282 52.5297 134.578 52.8193 134.778C53.112 134.975 53.4827 135.074 53.9314 135.074ZM64.3695 130.224L63.3575 130.511C63.2939 130.342 63.2 130.178 63.0759 130.019C62.955 129.857 62.7895 129.723 62.5795 129.618C62.3694 129.513 62.1006 129.461 61.7728 129.461C61.3241 129.461 60.9502 129.564 60.6511 129.771C60.3551 129.974 60.2071 130.234 60.2071 130.549C60.2071 130.829 60.309 131.05 60.5126 131.212C60.7163 131.375 61.0345 131.51 61.4673 131.618L62.5556 131.885C63.2111 132.045 63.6996 132.288 64.021 132.616C64.3424 132.94 64.5031 133.359 64.5031 133.871C64.5031 134.291 64.3822 134.667 64.1403 134.998C63.9017 135.329 63.5675 135.589 63.138 135.78C62.7084 135.971 62.2087 136.067 61.6391 136.067C60.8913 136.067 60.2724 135.905 59.7823 135.58C59.2923 135.255 58.982 134.781 58.8515 134.157L59.9207 133.89C60.0226 134.285 60.2151 134.581 60.4983 134.778C60.7847 134.975 61.1586 135.074 61.62 135.074C62.1451 135.074 62.562 134.963 62.8706 134.74C63.1825 134.514 63.3384 134.243 63.3384 133.928C63.3384 133.674 63.2493 133.461 63.0711 133.289C62.8929 133.114 62.6193 132.983 62.2501 132.897L61.0281 132.611C60.3567 132.452 59.8635 132.205 59.5484 131.871C59.2366 131.534 59.0806 131.112 59.0806 130.606C59.0806 130.192 59.1968 129.827 59.4291 129.508C59.6646 129.19 59.9844 128.94 60.3885 128.759C60.7958 128.577 61.2573 128.487 61.7728 128.487C62.4983 128.487 63.0679 128.646 63.4816 128.964C63.8985 129.282 64.1944 129.702 64.3695 130.224ZM69.3874 128.582V129.537H65.5879V128.582H69.3874ZM66.6953 126.826H67.8218V133.814C67.8218 134.132 67.8679 134.371 67.9602 134.53C68.0557 134.686 68.1766 134.791 68.323 134.845C68.4725 134.896 68.63 134.921 68.7955 134.921C68.9196 134.921 69.0215 134.915 69.101 134.902C69.1806 134.886 69.2442 134.873 69.2919 134.864L69.5211 135.876C69.4447 135.905 69.3381 135.933 69.2012 135.962C69.0644 135.994 68.891 136.01 68.681 136.01C68.3627 136.01 68.0509 135.941 67.7454 135.804C67.4431 135.667 67.1917 135.459 66.9912 135.179C66.7939 134.899 66.6953 134.546 66.6953 134.119V126.826ZM74.4805 127.188V126.138H81.8123V127.188H78.7383V135.914H77.5545V127.188H74.4805ZM82.7252 135.914V128.582H83.8135V129.69H83.8899C84.0236 129.327 84.2654 129.033 84.6154 128.807C84.9655 128.581 85.3601 128.468 85.7992 128.468C85.882 128.468 85.9854 128.469 86.1095 128.472C86.2336 128.476 86.3275 128.48 86.3911 128.487V129.632C86.3529 129.623 86.2654 129.609 86.1286 129.589C85.9949 129.567 85.8533 129.556 85.7038 129.556C85.3474 129.556 85.0291 129.631 84.7491 129.78C84.4722 129.927 84.2527 130.13 84.0904 130.391C83.9313 130.649 83.8517 130.943 83.8517 131.274V135.914H82.7252ZM89.884 136.086C89.4194 136.086 88.9977 135.998 88.6191 135.823C88.2404 135.645 87.9397 135.389 87.7169 135.055C87.4941 134.718 87.3828 134.31 87.3828 133.833C87.3828 133.413 87.4655 133.072 87.631 132.811C87.7965 132.547 88.0176 132.34 88.2945 132.191C88.5713 132.041 88.8768 131.93 89.2109 131.857C89.5483 131.78 89.8872 131.72 90.2277 131.675C90.6732 131.618 91.0343 131.575 91.3112 131.546C91.5912 131.515 91.7949 131.462 91.9222 131.389C92.0527 131.316 92.1179 131.188 92.1179 131.007V130.969C92.1179 130.498 91.989 130.132 91.7313 129.871C91.4767 129.61 91.09 129.48 90.5713 129.48C90.0335 129.48 89.6119 129.597 89.3064 129.833C89.0009 130.068 88.7861 130.32 88.662 130.587L87.5928 130.205C87.7837 129.76 88.0383 129.413 88.3565 129.165C88.6779 128.913 89.028 128.738 89.4066 128.64C89.7885 128.538 90.164 128.487 90.5332 128.487C90.7686 128.487 91.0391 128.515 91.3446 128.573C91.6533 128.627 91.9508 128.74 92.2372 128.912C92.5268 129.083 92.7671 129.343 92.958 129.69C93.1489 130.037 93.2444 130.501 93.2444 131.083V135.914H92.1179V134.921H92.0606C91.9842 135.08 91.8569 135.251 91.6787 135.432C91.5005 135.613 91.2635 135.768 90.9675 135.895C90.6716 136.022 90.3104 136.086 89.884 136.086ZM90.0558 135.074C90.5013 135.074 90.8768 134.986 91.1823 134.811C91.491 134.636 91.7233 134.41 91.8792 134.134C92.0383 133.857 92.1179 133.566 92.1179 133.26V132.229C92.0702 132.286 91.9651 132.339 91.8028 132.387C91.6437 132.431 91.4592 132.471 91.2491 132.506C91.0423 132.538 90.8402 132.566 90.6429 132.592C90.4488 132.614 90.2913 132.633 90.1704 132.649C89.8776 132.687 89.6039 132.749 89.3494 132.835C89.098 132.918 88.8943 133.044 88.7384 133.212C88.5856 133.378 88.5093 133.604 88.5093 133.89C88.5093 134.282 88.6541 134.578 88.9436 134.778C89.2364 134.975 89.6071 135.074 90.0558 135.074ZM96.427 131.504V135.914H95.3005V128.582H96.3888V129.728H96.4843C96.6561 129.356 96.917 129.056 97.2671 128.83C97.6171 128.601 98.069 128.487 98.6227 128.487C99.1191 128.487 99.5535 128.589 99.9258 128.792C100.298 128.993 100.588 129.298 100.795 129.709C101.001 130.116 101.105 130.632 101.105 131.255V135.914H99.9783V131.332C99.9783 130.756 99.8288 130.307 99.5296 129.986C99.2305 129.661 98.82 129.499 98.2981 129.499C97.9385 129.499 97.6171 129.577 97.3339 129.733C97.0539 129.889 96.8327 130.116 96.6704 130.415C96.5081 130.714 96.427 131.077 96.427 131.504ZM108.357 130.224L107.345 130.511C107.281 130.342 107.187 130.178 107.063 130.019C106.942 129.857 106.777 129.723 106.567 129.618C106.357 129.513 106.088 129.461 105.76 129.461C105.311 129.461 104.937 129.564 104.638 129.771C104.342 129.974 104.194 130.234 104.194 130.549C104.194 130.829 104.296 131.05 104.5 131.212C104.704 131.375 105.022 131.51 105.455 131.618L106.543 131.885C107.198 132.045 107.687 132.288 108.008 132.616C108.33 132.94 108.49 133.359 108.49 133.871C108.49 134.291 108.369 134.667 108.128 134.998C107.889 135.329 107.555 135.589 107.125 135.78C106.696 135.971 106.196 136.067 105.626 136.067C104.879 136.067 104.26 135.905 103.77 135.58C103.279 135.255 102.969 134.781 102.839 134.157L103.908 133.89C104.01 134.285 104.202 134.581 104.486 134.778C104.772 134.975 105.146 135.074 105.607 135.074C106.132 135.074 106.549 134.963 106.858 134.74C107.17 134.514 107.326 134.243 107.326 133.928C107.326 133.674 107.237 133.461 107.058 133.289C106.88 133.114 106.606 132.983 106.237 132.897L105.015 132.611C104.344 132.452 103.851 132.205 103.536 131.871C103.224 131.534 103.068 131.112 103.068 130.606C103.068 130.192 103.184 129.827 103.416 129.508C103.652 129.19 103.972 128.94 104.376 128.759C104.783 128.577 105.244 128.487 105.76 128.487C106.486 128.487 107.055 128.646 107.469 128.964C107.886 129.282 108.182 129.702 108.357 130.224ZM113.165 136.067C112.477 136.067 111.885 135.905 111.389 135.58C110.892 135.255 110.511 134.808 110.243 134.239C109.976 133.669 109.842 133.018 109.842 132.286C109.842 131.542 109.979 130.885 110.253 130.315C110.53 129.742 110.915 129.295 111.408 128.974C111.904 128.649 112.484 128.487 113.145 128.487C113.661 128.487 114.126 128.582 114.539 128.773C114.953 128.964 115.292 129.231 115.556 129.575C115.82 129.919 115.984 130.32 116.048 130.778H114.921C114.835 130.444 114.644 130.148 114.348 129.89C114.056 129.629 113.661 129.499 113.165 129.499C112.725 129.499 112.34 129.613 112.009 129.842C111.682 130.068 111.426 130.388 111.241 130.802C111.06 131.212 110.969 131.694 110.969 132.248C110.969 132.815 111.058 133.308 111.236 133.728C111.418 134.148 111.672 134.474 112 134.706C112.331 134.939 112.719 135.055 113.165 135.055C113.457 135.055 113.723 135.004 113.962 134.902C114.2 134.8 114.402 134.654 114.568 134.463C114.733 134.272 114.851 134.043 114.921 133.776H116.048C115.984 134.208 115.827 134.598 115.575 134.945C115.327 135.289 114.998 135.562 114.587 135.766C114.18 135.967 113.706 136.067 113.165 136.067ZM117.694 135.914V128.582H118.783V129.69H118.859C118.993 129.327 119.235 129.033 119.585 128.807C119.935 128.581 120.329 128.468 120.768 128.468C120.851 128.468 120.955 128.469 121.079 128.472C121.203 128.476 121.297 128.48 121.36 128.487V129.632C121.322 129.623 121.235 129.609 121.098 129.589C120.964 129.567 120.823 129.556 120.673 129.556C120.317 129.556 119.998 129.631 119.718 129.78C119.441 129.927 119.222 130.13 119.06 130.391C118.901 130.649 118.821 130.943 118.821 131.274V135.914H117.694ZM122.696 135.914V128.582H123.822V135.914H122.696ZM123.268 127.36C123.049 127.36 122.86 127.286 122.7 127.136C122.545 126.986 122.467 126.807 122.467 126.597C122.467 126.387 122.545 126.207 122.7 126.057C122.86 125.908 123.049 125.833 123.268 125.833C123.488 125.833 123.676 125.908 123.832 126.057C123.991 126.207 124.07 126.387 124.07 126.597C124.07 126.807 123.991 126.986 123.832 127.136C123.676 127.286 123.488 127.36 123.268 127.36ZM126.038 135.914V126.138H127.165V129.747H127.26C127.343 129.62 127.457 129.457 127.604 129.26C127.753 129.06 127.967 128.881 128.243 128.725C128.523 128.566 128.902 128.487 129.38 128.487C129.997 128.487 130.541 128.641 131.012 128.95C131.483 129.258 131.85 129.696 132.115 130.262C132.379 130.829 132.511 131.497 132.511 132.267C132.511 133.044 132.379 133.717 132.115 134.286C131.85 134.853 131.485 135.292 131.017 135.604C130.549 135.912 130.01 136.067 129.399 136.067C128.928 136.067 128.551 135.989 128.267 135.833C127.984 135.674 127.766 135.494 127.613 135.294C127.461 135.09 127.343 134.921 127.26 134.788H127.127V135.914H126.038ZM127.146 132.248C127.146 132.802 127.227 133.29 127.389 133.714C127.551 134.134 127.788 134.463 128.1 134.702C128.412 134.937 128.794 135.055 129.246 135.055C129.717 135.055 130.11 134.931 130.425 134.683C130.743 134.431 130.982 134.094 131.141 133.671C131.303 133.244 131.384 132.77 131.384 132.248C131.384 131.733 131.305 131.268 131.146 130.854C130.99 130.437 130.753 130.108 130.434 129.866C130.119 129.621 129.723 129.499 129.246 129.499C128.788 129.499 128.403 129.615 128.091 129.847C127.779 130.076 127.543 130.398 127.384 130.811C127.225 131.222 127.146 131.701 127.146 132.248ZM137.308 136.067C136.602 136.067 135.992 135.911 135.48 135.599C134.971 135.284 134.578 134.845 134.301 134.282C134.027 133.715 133.89 133.056 133.89 132.305C133.89 131.554 134.027 130.893 134.301 130.32C134.578 129.744 134.963 129.295 135.456 128.974C135.952 128.649 136.532 128.487 137.193 128.487C137.575 128.487 137.952 128.55 138.325 128.678C138.697 128.805 139.036 129.012 139.341 129.298C139.647 129.581 139.89 129.957 140.072 130.425C140.253 130.893 140.344 131.469 140.344 132.153V132.63H134.692V131.656H139.198C139.198 131.243 139.115 130.873 138.95 130.549C138.788 130.224 138.555 129.968 138.253 129.78C137.954 129.593 137.601 129.499 137.193 129.499C136.745 129.499 136.356 129.61 136.029 129.833C135.704 130.052 135.454 130.339 135.279 130.692C135.104 131.045 135.017 131.424 135.017 131.828V132.477C135.017 133.031 135.112 133.5 135.303 133.885C135.497 134.267 135.766 134.558 136.11 134.759C136.454 134.956 136.853 135.055 137.308 135.055C137.604 135.055 137.871 135.013 138.11 134.931C138.352 134.845 138.56 134.718 138.735 134.549C138.91 134.377 139.045 134.164 139.141 133.909L140.229 134.215C140.115 134.584 139.922 134.908 139.652 135.189C139.381 135.465 139.047 135.682 138.649 135.838C138.251 135.99 137.804 136.067 137.308 136.067ZM144.826 136.067C144.215 136.067 143.676 135.912 143.208 135.604C142.74 135.292 142.374 134.853 142.11 134.286C141.846 133.717 141.714 133.044 141.714 132.267C141.714 131.497 141.846 130.829 142.11 130.262C142.374 129.696 142.742 129.258 143.213 128.95C143.684 128.641 144.228 128.487 144.845 128.487C145.322 128.487 145.699 128.566 145.976 128.725C146.256 128.881 146.47 129.06 146.616 129.26C146.765 129.457 146.882 129.62 146.964 129.747H147.06V126.138H148.186V135.914H147.098V134.788H146.964C146.882 134.921 146.764 135.09 146.611 135.294C146.458 135.494 146.24 135.674 145.957 135.833C145.674 135.989 145.297 136.067 144.826 136.067ZM144.979 135.055C145.431 135.055 145.812 134.937 146.124 134.702C146.436 134.463 146.673 134.134 146.835 133.714C146.998 133.29 147.079 132.802 147.079 132.248C147.079 131.701 146.999 131.222 146.84 130.811C146.681 130.398 146.446 130.076 146.134 129.847C145.822 129.615 145.437 129.499 144.979 129.499C144.501 129.499 144.104 129.621 143.785 129.866C143.47 130.108 143.233 130.437 143.074 130.854C142.918 131.268 142.84 131.733 142.84 132.248C142.84 132.77 142.92 133.244 143.079 133.671C143.241 134.094 143.48 134.431 143.795 134.683C144.113 134.931 144.508 135.055 144.979 135.055Z" fill="#505A71"/>
</g>
<rect x="0.480058" y="0.480058" width="168.02" height="168.02" rx="11.0413" stroke="#E9EBF1" stroke-width="0.960117"/>
</g>
<defs>
<linearGradient id="paint0_linear_1819_12017" x1="40.326" y1="28.8037" x2="40.326" y2="57.6072" gradientUnits="userSpaceOnUse">
<stop stop-color="white"/>
<stop offset="1" stop-color="white" stop-opacity="0"/>
</linearGradient>
<clipPath id="clip0_1819_12017">
<rect width="168.981" height="168.981" rx="11.5214" fill="white"/>
</clipPath>
<clipPath id="clip1_1819_12017">
<rect width="168.981" height="168.981" fill="white"/>
</clipPath>
</defs>
</svg>
