<svg width="27" height="27" viewBox="0 0 27 27" fill="none" xmlns="http://www.w3.org/2000/svg">
<g clip-path="url(#clip0_2280_2829)">
<path fill-rule="evenodd" clip-rule="evenodd" d="M5.5498 8.25781V22.0078H19.2998V17.8828C19.2998 17.1234 19.9154 16.5078 20.6748 16.5078C21.4342 16.5078 22.0498 17.1234 22.0498 17.8828V23.3828C22.0498 24.1422 21.4342 24.7578 20.6748 24.7578H4.1748C3.41541 24.7578 2.7998 24.1422 2.7998 23.3828V6.88281C2.7998 6.12342 3.41541 5.50781 4.1748 5.50781H9.6748C10.4342 5.50781 11.0498 6.12342 11.0498 6.88281C11.0498 7.64221 10.4342 8.25781 9.6748 8.25781H5.5498ZM13.3971 16.1051C12.8601 16.642 11.9895 16.642 11.4525 16.1051C10.9156 15.5681 10.9156 14.6975 11.4525 14.1605L20.1161 5.50148H15.197C14.4394 5.50148 13.8252 4.88728 13.8252 4.12964C13.8252 3.372 14.4394 2.75781 15.197 2.75781H23.428C23.7791 2.75781 24.1302 2.89175 24.398 3.15961C24.6659 3.42748 24.7998 3.77856 24.7998 4.12964V12.3606C24.7998 13.1183 24.1856 13.7324 23.428 13.7324C22.6703 13.7324 22.0561 13.1183 22.0561 12.3606V7.44154L13.3971 16.1051Z" fill="white"/>
</g>
<defs>
<clipPath id="clip0_2280_2829">
<rect width="22" height="22" fill="white" transform="translate(2.7998 2.75781)"/>
</clipPath>
</defs>
</svg>
