<svg width="25" height="25" viewBox="0 0 25 25" fill="none" xmlns="http://www.w3.org/2000/svg">
<g clip-path="url(#clip0_2275_1329)">
<g clip-path="url(#clip1_2275_1329)">
<g clip-path="url(#clip2_2275_1329)">
<path d="M12.8281 7.32031C12.8281 7.1214 12.7491 6.93063 12.6084 6.78998C12.4678 6.64933 12.277 6.57031 12.0781 6.57031C11.8792 6.57031 11.6884 6.64933 11.5478 6.78998C11.4071 6.93063 11.3281 7.1214 11.3281 7.32031V17.8203C11.3281 18.0192 11.4071 18.21 11.5478 18.3506C11.6884 18.4913 11.8792 18.5703 12.0781 18.5703C12.277 18.5703 12.4678 18.4913 12.6084 18.3506C12.7491 18.21 12.8281 18.0192 12.8281 17.8203V7.32031ZM18.0781 8.63731C20.3011 6.50731 25.2706 10.7253 18.0781 15.5703C10.8856 10.7253 15.8551 6.50581 18.0781 8.63731ZM4.57812 8.07031C4.37922 8.07031 4.18845 8.14933 4.0478 8.28998C3.90715 8.43063 3.82812 8.6214 3.82812 8.82031C3.82812 9.01922 3.90715 9.20999 4.0478 9.35064C4.18845 9.49129 4.37922 9.57031 4.57812 9.57031H9.07812C9.27703 9.57031 9.4678 9.49129 9.60845 9.35064C9.7491 9.20999 9.82812 9.01922 9.82812 8.82031C9.82812 8.6214 9.7491 8.43063 9.60845 8.28998C9.4678 8.14933 9.27703 8.07031 9.07812 8.07031H4.57812ZM4.57812 11.0703C4.37922 11.0703 4.18845 11.1493 4.0478 11.29C3.90715 11.4306 3.82812 11.6214 3.82812 11.8203C3.82812 12.0192 3.90715 12.21 4.0478 12.3506C4.18845 12.4913 4.37922 12.5703 4.57812 12.5703H9.07812C9.27703 12.5703 9.4678 12.4913 9.60845 12.3506C9.7491 12.21 9.82812 12.0192 9.82812 11.8203C9.82812 11.6214 9.7491 11.4306 9.60845 11.29C9.4678 11.1493 9.27703 11.0703 9.07812 11.0703H4.57812ZM4.57812 14.0703C4.37922 14.0703 4.18845 14.1493 4.0478 14.29C3.90715 14.4306 3.82812 14.6214 3.82812 14.8203C3.82812 15.0192 3.90715 15.21 4.0478 15.3506C4.18845 15.4913 4.37922 15.5703 4.57812 15.5703H9.07812C9.27703 15.5703 9.4678 15.4913 9.60845 15.3506C9.7491 15.21 9.82812 15.0192 9.82812 14.8203C9.82812 14.6214 9.7491 14.4306 9.60845 14.29C9.4678 14.1493 9.27703 14.0703 9.07812 14.0703H4.57812Z" fill="white"/>
<path fill-rule="evenodd" clip-rule="evenodd" d="M0.828125 6.57031C0.828125 5.77466 1.1442 5.0116 1.7068 4.44899C2.26941 3.88638 3.03247 3.57031 3.82812 3.57031H21.8281C22.6237 3.57031 23.3868 3.88638 23.9494 4.44899C24.512 5.0116 24.8281 5.77466 24.8281 6.57031V18.5703C24.8281 19.3659 24.512 20.129 23.9494 20.6916C23.3868 21.2542 22.6237 21.5703 21.8281 21.5703H3.82812C3.03247 21.5703 2.26941 21.2542 1.7068 20.6916C1.1442 20.129 0.828125 19.3659 0.828125 18.5703V6.57031ZM3.82812 5.07031C3.43031 5.07031 3.04876 5.22835 2.76746 5.50965C2.48617 5.79095 2.32812 6.17249 2.32812 6.57031V18.5703C2.32812 18.9681 2.48617 19.3497 2.76746 19.631C3.04876 19.9123 3.43031 20.0703 3.82812 20.0703H21.8281C22.2259 20.0703 22.6075 19.9123 22.8888 19.631C23.1701 19.3497 23.3281 18.9681 23.3281 18.5703V6.57031C23.3281 6.17249 23.1701 5.79095 22.8888 5.50965C22.6075 5.22835 22.2259 5.07031 21.8281 5.07031H3.82812Z" fill="white"/>
</g>
</g>
</g>
<defs>
<clipPath id="clip0_2275_1329">
<rect width="24" height="24" fill="white" transform="translate(0.828125 0.570312)"/>
</clipPath>
<clipPath id="clip1_2275_1329">
<rect width="24" height="24" fill="white" transform="translate(0.828125 0.570312)"/>
</clipPath>
<clipPath id="clip2_2275_1329">
<rect width="24" height="24" fill="white" transform="translate(0.828125 0.570312)"/>
</clipPath>
</defs>
</svg>
