<svg width="33" height="33" viewBox="0 0 33 33" fill="none" xmlns="http://www.w3.org/2000/svg">
<path d="M0.175781 16.2969C0.175781 7.46032 7.33923 0.296875 16.1758 0.296875C25.0123 0.296875 32.1758 7.46032 32.1758 16.2969C32.1758 25.1334 25.0123 32.2969 16.1758 32.2969C7.33923 32.2969 0.175781 25.1334 0.175781 16.2969Z" fill="white"/>
<g clip-path="url(#clip0_2275_1426)">
<path d="M25.3548 11.3094L21.1648 7.11937C20.9188 6.87337 20.5848 6.73438 20.2368 6.73438C19.8888 6.73438 19.5548 6.87337 19.3088 7.11937L7.74777 18.6794C7.50077 18.9254 7.36277 19.2594 7.36377 19.6074V23.7974C7.36377 24.5224 7.95077 25.1104 8.67577 25.1104H24.4258C24.7368 25.1104 24.9888 24.8584 24.9888 24.5474C24.9888 24.2364 24.7368 23.9854 24.4258 23.9854H14.5338L25.3548 13.1654C25.6008 12.9194 25.7398 12.5854 25.7398 12.2374C25.7398 11.8894 25.6008 11.5554 25.3548 11.3094ZM12.9438 23.9854H8.67577C8.57177 23.9854 8.48878 23.9014 8.48878 23.7974V19.6074C8.48878 19.5584 8.50877 19.5104 8.54377 19.4754L16.9258 11.0934L21.3808 15.5474L12.9438 23.9854ZM24.5588 12.3694L22.1758 14.7524L17.7218 10.2974L20.1038 7.91537C20.1388 7.88038 20.1868 7.86037 20.2368 7.86037C20.2868 7.86037 20.3338 7.88038 20.3688 7.91537L24.5588 12.1044C24.5938 12.1394 24.6138 12.1864 24.6138 12.2364C24.6138 12.2864 24.5938 12.3344 24.5588 12.3694Z" fill="#121212"/>
</g>
<defs>
<clipPath id="clip0_2275_1426">
<rect width="24" height="24" fill="white" transform="translate(4.17578 4.29688)"/>
</clipPath>
</defs>
</svg>
