<svg width="33" height="33" viewBox="0 0 33 33" fill="none" xmlns="http://www.w3.org/2000/svg">
<path d="M0.211426 16.2969C0.211426 7.46032 7.37487 0.296875 16.2114 0.296875C25.048 0.296875 32.2114 7.46032 32.2114 16.2969C32.2114 25.1334 25.048 32.2969 16.2114 32.2969C7.37487 32.2969 0.211426 25.1334 0.211426 16.2969Z" fill="white"/>
<g clip-path="url(#clip0_2275_1444)">
<path d="M10.0245 14.2904V8.04638C10.0245 7.73538 9.77248 7.48438 9.46148 7.48438C9.15048 7.48438 8.89948 7.73538 8.89948 8.04638V14.2904C7.58848 14.5564 6.64648 15.7084 6.64648 17.0464C6.64648 18.3844 7.58848 19.5364 8.89948 19.8024V24.5464C8.89948 24.8574 9.15048 25.1094 9.46148 25.1094C9.77248 25.1094 10.0245 24.8574 10.0245 24.5464V19.8024C11.3345 19.5364 12.2765 18.3844 12.2765 17.0464C12.2765 15.7084 11.3345 14.5564 10.0245 14.2904ZM9.46148 18.7344C8.52948 18.7344 7.77348 17.9784 7.77348 17.0464C7.77348 16.1144 8.52948 15.3594 9.46148 15.3594C10.3935 15.3594 11.1485 16.1144 11.1485 17.0464C11.1485 17.9784 10.3935 18.7344 9.46148 18.7344ZM16.7735 9.79037V8.04638C16.7735 7.73538 16.5225 7.48438 16.2115 7.48438C15.9005 7.48438 15.6485 7.73538 15.6485 8.04638V9.79037C14.3385 10.0564 13.3965 11.2084 13.3965 12.5464C13.3965 13.8844 14.3385 15.0364 15.6485 15.3024V24.5464C15.6485 24.8574 15.9005 25.1094 16.2115 25.1094C16.5225 25.1094 16.7735 24.8574 16.7735 24.5464V15.3024C18.0845 15.0364 19.0265 13.8844 19.0265 12.5464C19.0265 11.2084 18.0845 10.0564 16.7735 9.79037ZM16.2115 14.2344C15.2795 14.2344 14.5235 13.4784 14.5235 12.5464C14.5235 11.6144 15.2795 10.8594 16.2115 10.8594C17.1435 10.8594 17.8985 11.6144 17.8985 12.5464C17.8985 13.4784 17.1435 14.2344 16.2115 14.2344ZM25.7745 20.0464C25.7725 18.7104 24.8325 17.5594 23.5245 17.2904V8.04638C23.5245 7.73538 23.2725 7.48438 22.9615 7.48438C22.6505 7.48438 22.3995 7.73538 22.3995 8.04638V17.2904C21.0885 17.5564 20.1465 18.7084 20.1465 20.0464C20.1465 21.3844 21.0885 22.5364 22.3995 22.8024V24.5464C22.3995 24.8574 22.6505 25.1094 22.9615 25.1094C23.2725 25.1094 23.5245 24.8574 23.5245 24.5464V22.8024C24.8325 22.5334 25.7725 21.3824 25.7745 20.0464ZM22.9615 21.7344C22.0295 21.7344 21.2745 20.9784 21.2745 20.0464C21.2745 19.1144 22.0295 18.3594 22.9615 18.3594C23.8935 18.3594 24.6495 19.1144 24.6495 20.0464C24.6495 20.9784 23.8935 21.7344 22.9615 21.7344Z" fill="#121212"/>
</g>
<defs>
<clipPath id="clip0_2275_1444">
<rect width="24" height="24" fill="white" transform="translate(4.21143 4.29688)"/>
</clipPath>
</defs>
</svg>
