<svg width="33" height="33" viewBox="0 0 33 33" fill="none" xmlns="http://www.w3.org/2000/svg">
<path d="M0.205566 16.2969C0.205566 7.46032 7.36901 0.296875 16.2056 0.296875C25.0421 0.296875 32.2056 7.46032 32.2056 16.2969C32.2056 25.1334 25.0421 32.2969 16.2056 32.2969C7.36901 32.2969 0.205566 25.1334 0.205566 16.2969Z" fill="white"/>
<g clip-path="url(#clip0_2275_1467)">
<path d="M27.2676 18.5474C27.2676 18.8584 27.0166 19.1094 26.7056 19.1094H25.0176V20.7974C25.0176 21.1084 24.7666 21.3594 24.4556 21.3594C24.1446 21.3594 23.8926 21.1084 23.8926 20.7974V19.1094H22.2056C21.8946 19.1094 21.6426 18.8584 21.6426 18.5474C21.6426 18.2364 21.8946 17.9844 22.2056 17.9844H23.8926V16.2974C23.8926 15.9864 24.1446 15.7344 24.4556 15.7344C24.7666 15.7344 25.0176 15.9864 25.0176 16.2974V17.9844H26.7056C27.0166 17.9844 27.2676 18.2364 27.2676 18.5474ZM9.4556 10.8594H11.1436V12.5474C11.1436 12.8584 11.3946 13.1094 11.7056 13.1094C12.0166 13.1094 12.2686 12.8584 12.2686 12.5474V10.8594H13.9556C14.2666 10.8594 14.5186 10.6084 14.5186 10.2974C14.5186 9.98637 14.2666 9.73437 13.9556 9.73437H12.2686V8.04737C12.2686 7.73637 12.0166 7.48438 11.7056 7.48438C11.3946 7.48438 11.1436 7.73637 11.1436 8.04737V9.73437H9.4556C9.1446 9.73437 8.8936 9.98637 8.8936 10.2974C8.8936 10.6084 9.1446 10.8594 9.4556 10.8594ZM21.4556 22.4844H20.5176V21.5474C20.5176 21.2364 20.2666 20.9844 19.9556 20.9844C19.6446 20.9844 19.3926 21.2364 19.3926 21.5474V22.4844H18.4556C18.1446 22.4844 17.8926 22.7364 17.8926 23.0474C17.8926 23.3584 18.1446 23.6094 18.4556 23.6094H19.3926V24.5474C19.3926 24.8584 19.6446 25.1094 19.9556 25.1094C20.2666 25.1094 20.5176 24.8584 20.5176 24.5474V23.6094H21.4556C21.7666 23.6094 22.0176 23.3584 22.0176 23.0474C22.0176 22.7364 21.7666 22.4844 21.4556 22.4844ZM24.6336 11.6654L11.5726 24.7254C11.3266 24.9714 10.9926 25.1104 10.6446 25.1104C10.2966 25.1104 9.9626 24.9714 9.7166 24.7254L7.7766 22.7854C7.5306 22.5394 7.3916 22.2054 7.3916 21.8574C7.3916 21.5094 7.5306 21.1754 7.7766 20.9294L20.8376 7.86937C21.0836 7.62337 21.4176 7.48438 21.7656 7.48438C22.1136 7.48438 22.4476 7.62337 22.6936 7.86937L24.6336 9.80938C24.8796 10.0554 25.0186 10.3894 25.0186 10.7374C25.0186 11.0854 24.8796 11.4194 24.6336 11.6654ZM19.9096 14.7974L17.7056 12.5934L8.5726 21.7254C8.5376 21.7604 8.5176 21.8084 8.5176 21.8584C8.5176 21.9084 8.5376 21.9554 8.5726 21.9904L10.5126 23.9294C10.5856 24.0024 10.7036 24.0024 10.7766 23.9294L19.9096 14.7974ZM23.8376 10.6044L21.8986 8.66537C21.8636 8.63038 21.8166 8.61038 21.7666 8.61038C21.7166 8.61038 21.6686 8.63038 21.6336 8.66537L18.5006 11.7974L20.7056 14.0024L23.8376 10.8694C23.8726 10.8344 23.8926 10.7864 23.8926 10.7364C23.8926 10.6864 23.8726 10.6394 23.8376 10.6044Z" fill="#121212"/>
</g>
<defs>
<clipPath id="clip0_2275_1467">
<rect width="24" height="24" fill="white" transform="translate(4.20557 4.29688)"/>
</clipPath>
</defs>
</svg>
