<svg width="25" height="25" viewBox="0 0 25 25" fill="none" xmlns="http://www.w3.org/2000/svg">
<g clip-path="url(#clip0_2275_1378)">
<g clip-path="url(#clip1_2275_1378)">
<path d="M4.82812 15.7891H20.8281M4.82812 20.7891H16.8281M4.82812 5.78906C4.82812 5.52384 4.93349 5.26949 5.12102 5.08195C5.30856 4.89442 5.56291 4.78906 5.82812 4.78906H9.82812C10.0933 4.78906 10.3477 4.89442 10.5352 5.08195C10.7228 5.26949 10.8281 5.52384 10.8281 5.78906V9.78906C10.8281 10.0543 10.7228 10.3086 10.5352 10.4962C10.3477 10.6837 10.0933 10.7891 9.82812 10.7891H5.82812C5.56291 10.7891 5.30856 10.6837 5.12102 10.4962C4.93349 10.3086 4.82812 10.0543 4.82812 9.78906V5.78906Z" stroke="white" stroke-width="1.5" stroke-linecap="round" stroke-linejoin="round"/>
</g>
</g>
<defs>
<clipPath id="clip0_2275_1378">
<rect width="24" height="24" fill="white" transform="translate(0.828125 0.789062)"/>
</clipPath>
<clipPath id="clip1_2275_1378">
<rect width="24" height="24" fill="white" transform="translate(0.828125 0.789062)"/>
</clipPath>
</defs>
</svg>
