<svg width="27" height="27" viewBox="0 0 27 27" fill="none" xmlns="http://www.w3.org/2000/svg">
<g clip-path="url(#clip0_2280_2815)">
<g clip-path="url(#clip1_2280_2815)">
<path d="M23.4294 14.9991H14.3368V12.5197H20.4803C21.4307 12.5197 22.2007 11.742 22.2007 10.7828V5.82177C22.2007 4.86368 21.4307 4.08598 20.4803 4.08598H14.3368V1.85298C14.3368 1.44268 14.0068 1.10938 13.5998 1.10938C13.1928 1.10938 12.8628 1.44268 12.8628 1.85298V4.08598H6.7193C5.7689 4.08598 4.9989 4.86368 4.9989 5.82177V10.7828C4.9989 11.742 5.7689 12.5197 6.7193 12.5197H12.8628V14.9991H3.7702C2.8198 14.9991 2.0498 15.7768 2.0498 16.736V21.697C2.0498 22.6551 2.8198 23.4328 3.7702 23.4328H12.8628V25.6658C12.8628 26.0761 13.1928 26.4094 13.5998 26.4094C14.0068 26.4094 14.3368 26.0761 14.3368 25.6658V23.4328H23.4294C24.3798 23.4328 25.1498 22.6551 25.1498 21.697V16.736C25.1498 15.7768 24.3798 14.9991 23.4294 14.9991ZM6.4729 10.7828V5.82177C6.4729 5.68538 6.5829 5.57428 6.7193 5.57428H20.4803C20.6167 5.57428 20.7267 5.68538 20.7267 5.82177V10.7828C20.7267 10.9203 20.6167 11.0314 20.4803 11.0314H6.7193C6.5829 11.0314 6.4729 10.9203 6.4729 10.7828ZM23.6758 21.697C23.6758 21.8334 23.5658 21.9445 23.4294 21.9445H3.7702C3.6338 21.9445 3.5238 21.8334 3.5238 21.697V16.736C3.5238 16.5985 3.6338 16.4874 3.7702 16.4874H23.4294C23.5658 16.4874 23.6758 16.5985 23.6758 16.736V21.697Z" fill="white"/>
</g>
</g>
<defs>
<clipPath id="clip0_2280_2815">
<rect width="26.4" height="26.4" fill="white" transform="translate(0.399902 0.558594)"/>
</clipPath>
<clipPath id="clip1_2280_2815">
<rect width="26.4" height="26.4" fill="white" transform="translate(0.399902 0.558594)"/>
</clipPath>
</defs>
</svg>
