<svg width="25" height="25" viewBox="0 0 25 25" fill="none" xmlns="http://www.w3.org/2000/svg">
<g clip-path="url(#clip0_2275_1347)">
<g clip-path="url(#clip1_2275_1347)">
<path d="M21.2964 13.6973H13.0304V11.4433H18.6154C19.4794 11.4433 20.1794 10.7363 20.1794 9.86431V5.35431C20.1794 4.48331 19.4794 3.77631 18.6154 3.77631H13.0304V1.74631C13.0304 1.37331 12.7304 1.07031 12.3604 1.07031C11.9904 1.07031 11.6904 1.37331 11.6904 1.74631V3.77631H6.10535C5.24135 3.77631 4.54135 4.48331 4.54135 5.35431V9.86431C4.54135 10.7363 5.24135 11.4433 6.10535 11.4433H11.6904V13.6973H3.42435C2.56035 13.6973 1.86035 14.4043 1.86035 15.2763V19.7863C1.86035 20.6573 2.56035 21.3643 3.42435 21.3643H11.6904V23.3943C11.6904 23.7673 11.9904 24.0703 12.3604 24.0703C12.7304 24.0703 13.0304 23.7673 13.0304 23.3943V21.3643H21.2964C22.1604 21.3643 22.8604 20.6573 22.8604 19.7863V15.2763C22.8604 14.4043 22.1604 13.6973 21.2964 13.6973ZM5.88135 9.86431V5.35431C5.88135 5.23031 5.98135 5.12931 6.10535 5.12931H18.6154C18.7394 5.12931 18.8394 5.23031 18.8394 5.35431V9.86431C18.8394 9.98931 18.7394 10.0903 18.6154 10.0903H6.10535C5.98135 10.0903 5.88135 9.98931 5.88135 9.86431ZM21.5204 19.7863C21.5204 19.9103 21.4204 20.0113 21.2964 20.0113H3.42435C3.30035 20.0113 3.20035 19.9103 3.20035 19.7863V15.2763C3.20035 15.1513 3.30035 15.0503 3.42435 15.0503H21.2964C21.4204 15.0503 21.5204 15.1513 21.5204 15.2763V19.7863Z" fill="white"/>
</g>
</g>
<defs>
<clipPath id="clip0_2275_1347">
<rect width="24" height="24" fill="white" transform="translate(0.360352 0.570312)"/>
</clipPath>
<clipPath id="clip1_2275_1347">
<rect width="24" height="24" fill="white" transform="translate(0.360352 0.570312)"/>
</clipPath>
</defs>
</svg>
